<svg width="123" height="24" viewBox="0 0 123 24" fill="none" xmlns="http://www.w3.org/2000/svg">
<path d="M6.88432 9.61719C6.83792 9.183 6.64237 8.84493 6.29767 8.60298C5.95629 8.36103 5.51216 8.24006 4.96529 8.24006C4.58082 8.24006 4.25104 8.29806 3.97594 8.41406C3.70085 8.53007 3.49038 8.6875 3.34455 8.88636C3.19872 9.08523 3.12414 9.31226 3.12083 9.56747C3.12083 9.77959 3.16889 9.96354 3.265 10.1193C3.36444 10.2751 3.49867 10.4077 3.6677 10.517C3.83674 10.6231 4.024 10.7126 4.22949 10.7855C4.43498 10.8584 4.64213 10.9197 4.85094 10.9695L5.80549 11.2081C6.18996 11.2976 6.55951 11.4186 6.91415 11.571C7.27211 11.7235 7.59194 11.9157 7.87367 12.1477C8.15871 12.3797 8.38408 12.6598 8.5498 12.9879C8.71552 13.3161 8.79838 13.7005 8.79838 14.1413C8.79838 14.7379 8.64592 15.2633 8.341 15.7173C8.03607 16.1681 7.59526 16.5211 7.01855 16.7763C6.44516 17.0282 5.7508 17.1541 4.93546 17.1541C4.14332 17.1541 3.45558 17.0315 2.87225 16.7862C2.29223 16.541 1.83816 16.183 1.51003 15.7124C1.18522 15.2417 1.00956 14.6683 0.983043 13.9922H2.79767C2.82419 14.3468 2.93356 14.6418 3.1258 14.8771C3.31803 15.1125 3.56827 15.2881 3.87651 15.4041C4.18806 15.5201 4.53607 15.5781 4.92054 15.5781C5.32159 15.5781 5.67291 15.5185 5.97452 15.3991C6.27944 15.2765 6.51808 15.1075 6.69043 14.892C6.86278 14.6733 6.95061 14.4181 6.95392 14.1264C6.95061 13.8613 6.87272 13.6425 6.72026 13.4702C6.5678 13.2945 6.35402 13.1487 6.07892 13.0327C5.80714 12.9134 5.48896 12.8073 5.12438 12.7145L3.966 12.4162C3.12746 12.2008 2.46458 11.8743 1.97736 11.4368C1.49346 10.996 1.25151 10.411 1.25151 9.68182C1.25151 9.08191 1.41391 8.55658 1.73873 8.10582C2.06685 7.65507 2.51264 7.3054 3.07608 7.05682C3.63953 6.80492 4.27755 6.67898 4.99015 6.67898C5.71268 6.67898 6.34573 6.80492 6.88929 7.05682C7.43617 7.3054 7.86538 7.65175 8.17694 8.09588C8.48849 8.53669 8.64924 9.0438 8.65918 9.61719H6.88432ZM13.7439 17.1491C12.9782 17.1491 12.317 16.9901 11.7602 16.6719C11.2067 16.3504 10.7808 15.8963 10.4825 15.3097C10.1842 14.7197 10.0351 14.0253 10.0351 13.2266C10.0351 12.4411 10.1842 11.7517 10.4825 11.1584C10.7841 10.5618 11.205 10.0978 11.7453 9.76633C12.2855 9.43158 12.9202 9.2642 13.6494 9.2642C14.1201 9.2642 14.5642 9.34044 14.9818 9.4929C15.4027 9.64205 15.7739 9.87405 16.0954 10.1889C16.4202 10.5038 16.6755 10.9048 16.8611 11.392C17.0467 11.8759 17.1395 12.4527 17.1395 13.1222V13.674H10.8802V12.4609H15.4143C15.411 12.1162 15.3364 11.8097 15.1906 11.5412C15.0448 11.2694 14.8409 11.0556 14.5791 10.8999C14.3206 10.7441 14.019 10.6662 13.6743 10.6662C13.3064 10.6662 12.9832 10.7557 12.7048 10.9347C12.4264 11.1103 12.2093 11.3423 12.0535 11.6307C11.9011 11.9157 11.8232 12.2289 11.8199 12.5703V13.6293C11.8199 14.0734 11.9011 14.4545 12.0635 14.7727C12.2259 15.0876 12.4529 15.3295 12.7446 15.4986C13.0363 15.6643 13.3776 15.7472 13.7687 15.7472C14.0306 15.7472 14.2675 15.7107 14.4797 15.6378C14.6918 15.5616 14.8757 15.4505 15.0315 15.3047C15.1873 15.1589 15.305 14.9782 15.3845 14.7628L17.0649 14.9517C16.9588 15.3958 16.7567 15.7836 16.4584 16.1151C16.1634 16.4432 15.7855 16.6984 15.3248 16.8807C14.8641 17.0597 14.3372 17.1491 13.7439 17.1491ZM22.0427 17.1491C21.2771 17.1491 20.6159 16.9901 20.059 16.6719C19.5055 16.3504 19.0796 15.8963 18.7813 15.3097C18.483 14.7197 18.3339 14.0253 18.3339 13.2266C18.3339 12.4411 18.483 11.7517 18.7813 11.1584C19.0829 10.5618 19.5039 10.0978 20.0441 9.76633C20.5844 9.43158 21.2191 9.2642 21.9482 9.2642C22.4189 9.2642 22.863 9.34044 23.2806 9.4929C23.7016 9.64205 24.0728 9.87405 24.3943 10.1889C24.7191 10.5038 24.9743 10.9048 25.1599 11.392C25.3455 11.8759 25.4383 12.4527 25.4383 13.1222V13.674H19.1791V12.4609H23.7132C23.7098 12.1162 23.6353 11.8097 23.4894 11.5412C23.3436 11.2694 23.1398 11.0556 22.8779 10.8999C22.6194 10.7441 22.3178 10.6662 21.9731 10.6662C21.6052 10.6662 21.282 10.7557 21.0036 10.9347C20.7252 11.1103 20.5081 11.3423 20.3524 11.6307C20.1999 11.9157 20.122 12.2289 20.1187 12.5703V13.6293C20.1187 14.0734 20.1999 14.4545 20.3623 14.7727C20.5247 15.0876 20.7517 15.3295 21.0434 15.4986C21.3351 15.6643 21.6765 15.7472 22.0676 15.7472C22.3294 15.7472 22.5664 15.7107 22.7785 15.6378C22.9906 15.5616 23.1746 15.4505 23.3303 15.3047C23.4861 15.1589 23.6038 14.9782 23.6833 14.7628L25.3637 14.9517C25.2577 15.3958 25.0555 15.7836 24.7572 16.1151C24.4622 16.4432 24.0844 16.6984 23.6237 16.8807C23.163 17.0597 22.636 17.1491 22.0427 17.1491ZM32.6309 17.1541C32.147 17.1541 31.7112 17.0679 31.3234 16.8956C30.939 16.7199 30.634 16.4614 30.4086 16.12C30.1866 15.7786 30.0756 15.3577 30.0756 14.8572C30.0756 14.4264 30.1551 14.0701 30.3142 13.7884C30.4733 13.5066 30.6904 13.2812 30.9655 13.1122C31.2406 12.9432 31.5505 12.8156 31.8952 12.7294C32.2432 12.6399 32.6028 12.5753 32.974 12.5355C33.4214 12.4891 33.7844 12.4477 34.0628 12.4112C34.3412 12.3714 34.5434 12.3118 34.6693 12.2322C34.7986 12.1494 34.8632 12.0218 34.8632 11.8494V11.8196C34.8632 11.4451 34.7522 11.1551 34.5301 10.9496C34.308 10.7441 33.9882 10.6413 33.5706 10.6413C33.1298 10.6413 32.7801 10.7375 32.5216 10.9297C32.2664 11.1219 32.094 11.349 32.0045 11.6108L30.3241 11.3722C30.4567 10.9081 30.6755 10.5204 30.9804 10.2088C31.2853 9.89394 31.6582 9.65862 32.099 9.50284C32.5398 9.34375 33.027 9.2642 33.5606 9.2642C33.9285 9.2642 34.2948 9.30729 34.6594 9.39347C35.0239 9.47964 35.357 9.62216 35.6586 9.82102C35.9603 10.0166 36.2022 10.2834 36.3845 10.6214C36.5701 10.9595 36.6629 11.3821 36.6629 11.8892V17H34.9328V15.951H34.8731C34.7638 16.1631 34.6096 16.362 34.4108 16.5476C34.2152 16.7299 33.9683 16.8774 33.67 16.9901C33.375 17.0994 33.0287 17.1541 32.6309 17.1541ZM33.0983 15.8317C33.4595 15.8317 33.7728 15.7604 34.0379 15.6179C34.3031 15.4721 34.5069 15.2798 34.6494 15.0412C34.7952 14.8026 34.8682 14.5424 34.8682 14.2607V13.3608C34.8118 13.4072 34.7157 13.4503 34.5798 13.4901C34.4472 13.5298 34.2981 13.5646 34.1324 13.5945C33.9666 13.6243 33.8026 13.6508 33.6402 13.674C33.4778 13.6972 33.3369 13.7171 33.2176 13.7337C32.9491 13.7701 32.7088 13.8298 32.4967 13.9126C32.2846 13.9955 32.1172 14.1115 31.9946 14.2607C31.872 14.4065 31.8106 14.5954 31.8106 14.8274C31.8106 15.1589 31.9316 15.4091 32.1736 15.5781C32.4155 15.7472 32.7238 15.8317 33.0983 15.8317ZM40.2723 6.81818V17H38.4726V6.81818H40.2723ZM43.9227 6.81818V17H42.123V6.81818H43.9227ZM52.577 17.1491C51.8147 17.1491 51.1601 16.9818 50.6132 16.647C50.0696 16.3123 49.6504 15.8499 49.3554 15.2599C49.0637 14.6667 48.9179 13.9839 48.9179 13.2116C48.9179 12.4361 49.067 11.7517 49.3653 11.1584C49.6636 10.5618 50.0845 10.0978 50.6281 9.76633C51.175 9.43158 51.8213 9.2642 52.567 9.2642C53.1868 9.2642 53.7354 9.37855 54.2126 9.60724C54.6932 9.83262 55.076 10.1525 55.3611 10.5668C55.6461 10.9777 55.8085 11.4583 55.8483 12.0085H54.1281C54.0585 11.6406 53.8928 11.334 53.6309 11.0888C53.3724 10.8402 53.0261 10.7159 52.5919 10.7159C52.224 10.7159 51.9008 10.8153 51.6224 11.0142C51.344 11.2098 51.1269 11.4915 50.9711 11.8594C50.8187 12.2273 50.7425 12.6681 50.7425 13.1818C50.7425 13.7022 50.8187 14.1496 50.9711 14.5241C51.1236 14.8954 51.3374 15.1821 51.6125 15.3842C51.8909 15.5831 52.2174 15.6825 52.5919 15.6825C52.857 15.6825 53.094 15.6328 53.3028 15.5334C53.5149 15.4306 53.6923 15.2831 53.8348 15.0909C53.9773 14.8987 54.0751 14.665 54.1281 14.3899H55.8483C55.8052 14.9302 55.6461 15.4091 55.371 15.8267C55.0959 16.241 54.7214 16.5658 54.2474 16.8011C53.7735 17.0331 53.2166 17.1491 52.577 17.1491ZM60.657 17.1491C59.9113 17.1491 59.265 16.9851 58.7181 16.657C58.1713 16.3288 57.747 15.8698 57.4454 15.2798C57.1471 14.6899 56.998 14.0005 56.998 13.2116C56.998 12.4228 57.1471 11.7318 57.4454 11.1385C57.747 10.5452 58.1713 10.0845 58.7181 9.75639C59.265 9.42827 59.9113 9.2642 60.657 9.2642C61.4028 9.2642 62.0491 9.42827 62.596 9.75639C63.1428 10.0845 63.5654 10.5452 63.8637 11.1385C64.1653 11.7318 64.3161 12.4228 64.3161 13.2116C64.3161 14.0005 64.1653 14.6899 63.8637 15.2798C63.5654 15.8698 63.1428 16.3288 62.596 16.657C62.0491 16.9851 61.4028 17.1491 60.657 17.1491ZM60.667 15.7074C61.0713 15.7074 61.4094 15.5964 61.6812 15.3743C61.953 15.1489 62.1552 14.8473 62.2877 14.4695C62.4236 14.0916 62.4916 13.6707 62.4916 13.2067C62.4916 12.7393 62.4236 12.3168 62.2877 11.9389C62.1552 11.5578 61.953 11.2545 61.6812 11.0291C61.4094 10.8037 61.0713 10.6911 60.667 10.6911C60.2527 10.6911 59.908 10.8037 59.6329 11.0291C59.3611 11.2545 59.1573 11.5578 59.0214 11.9389C58.8888 12.3168 58.8225 12.7393 58.8225 13.2067C58.8225 13.6707 58.8888 14.0916 59.0214 14.4695C59.1573 14.8473 59.3611 15.1489 59.6329 15.3743C59.908 15.5964 60.2527 15.7074 60.667 15.7074ZM70.7108 13.7884V9.36364H72.5106V17H70.7655V15.6428H70.686C70.5136 16.0703 70.2303 16.42 69.8358 16.6918C69.4448 16.9635 68.9625 17.0994 68.3891 17.0994C67.8886 17.0994 67.4462 16.9884 67.0617 16.7663C66.6805 16.541 66.3823 16.2145 66.1668 15.7869C65.9514 15.3561 65.8437 14.8357 65.8437 14.2259V9.36364H67.6434V13.9474C67.6434 14.4313 67.776 14.8158 68.0411 15.1009C68.3063 15.3859 68.6543 15.5284 69.0851 15.5284C69.3503 15.5284 69.6072 15.4638 69.8557 15.3345C70.1043 15.2053 70.3082 15.013 70.4672 14.7578C70.6296 14.4993 70.7108 14.1761 70.7108 13.7884ZM74.3612 17V9.36364H76.1063V10.6364H76.1858C76.325 10.1955 76.5637 9.85582 76.9017 9.61719C77.2431 9.37524 77.6325 9.25426 78.07 9.25426C78.1695 9.25426 78.2805 9.25923 78.4031 9.26918C78.5291 9.2758 78.6335 9.2874 78.7164 9.30398V10.9595C78.6401 10.933 78.5191 10.9098 78.3534 10.8899C78.191 10.8667 78.0336 10.8551 77.8811 10.8551C77.553 10.8551 77.258 10.9264 76.9962 11.0689C76.7377 11.2081 76.5338 11.402 76.3847 11.6506C76.2355 11.8991 76.161 12.1858 76.161 12.5107V17H74.3612ZM85.9475 11.3821L84.3069 11.5611C84.2605 11.3954 84.1793 11.2396 84.0633 11.0938C83.9506 10.9479 83.7981 10.8303 83.6059 10.7408C83.4137 10.6513 83.1784 10.6065 82.8999 10.6065C82.5254 10.6065 82.2106 10.6877 81.9553 10.8501C81.7035 11.0125 81.5792 11.223 81.5825 11.4815C81.5792 11.7036 81.6604 11.8842 81.8261 12.0234C81.9951 12.1626 82.2735 12.277 82.6613 12.3665L83.9639 12.6449C84.6864 12.8007 85.2233 13.0476 85.5747 13.3857C85.9293 13.7237 86.1083 14.1662 86.1116 14.7131C86.1083 15.1937 85.9674 15.6179 85.689 15.9858C85.4139 16.3504 85.0311 16.6354 84.5406 16.8409C84.05 17.0464 83.4866 17.1491 82.8502 17.1491C81.9156 17.1491 81.1632 16.9536 80.5931 16.5625C80.0231 16.1681 79.6833 15.6196 79.574 14.9169L81.3289 14.7479C81.4085 15.0926 81.5775 15.3527 81.836 15.5284C82.0945 15.7041 82.431 15.7919 82.8453 15.7919C83.2728 15.7919 83.6159 15.7041 83.8744 15.5284C84.1362 15.3527 84.2671 15.1357 84.2671 14.8771C84.2671 14.6584 84.1826 14.4777 84.0136 14.3352C83.8479 14.1927 83.5893 14.0833 83.238 14.0071L81.9355 13.7337C81.203 13.5812 80.6611 13.3243 80.3097 12.9631C79.9584 12.5985 79.7844 12.1378 79.7877 11.581C79.7844 11.1103 79.912 10.7027 80.1705 10.358C80.4324 10.0099 80.7953 9.74148 81.2593 9.55256C81.7267 9.36032 82.2652 9.2642 82.8751 9.2642C83.77 9.2642 84.4743 9.45478 84.988 9.83594C85.5051 10.2171 85.8249 10.7325 85.9475 11.3821ZM90.9763 17.1491C90.2107 17.1491 89.5494 16.9901 88.9926 16.6719C88.4391 16.3504 88.0132 15.8963 87.7149 15.3097C87.4166 14.7197 87.2675 14.0253 87.2675 13.2266C87.2675 12.4411 87.4166 11.7517 87.7149 11.1584C88.0165 10.5618 88.4375 10.0978 88.9777 9.76633C89.518 9.43158 90.1527 9.2642 90.8818 9.2642C91.3525 9.2642 91.7966 9.34044 92.2142 9.4929C92.6352 9.64205 93.0064 9.87405 93.3279 10.1889C93.6527 10.5038 93.9079 10.9048 94.0935 11.392C94.2791 11.8759 94.3719 12.4527 94.3719 13.1222V13.674H88.1127V12.4609H92.6468C92.6434 12.1162 92.5689 11.8097 92.423 11.5412C92.2772 11.2694 92.0734 11.0556 91.8115 10.8999C91.553 10.7441 91.2514 10.6662 90.9067 10.6662C90.5388 10.6662 90.2156 10.7557 89.9372 10.9347C89.6588 11.1103 89.4417 11.3423 89.286 11.6307C89.1335 11.9157 89.0556 12.2289 89.0523 12.5703V13.6293C89.0523 14.0734 89.1335 14.4545 89.2959 14.7727C89.4583 15.0876 89.6853 15.3295 89.977 15.4986C90.2687 15.6643 90.6101 15.7472 91.0012 15.7472C91.263 15.7472 91.5 15.7107 91.7121 15.6378C91.9242 15.5616 92.1082 15.4505 92.2639 15.3047C92.4197 15.1589 92.5374 14.9782 92.6169 14.7628L94.2973 14.9517C94.1913 15.3958 93.9891 15.7836 93.6908 16.1151C93.3958 16.4432 93.018 16.6984 92.5573 16.8807C92.0966 17.0597 91.5696 17.1491 90.9763 17.1491ZM101.93 11.3821L100.289 11.5611C100.243 11.3954 100.162 11.2396 100.046 11.0938C99.933 10.9479 99.7806 10.8303 99.5883 10.7408C99.3961 10.6513 99.1608 10.6065 98.8824 10.6065C98.5078 10.6065 98.193 10.6877 97.9378 10.8501C97.6859 11.0125 97.5616 11.223 97.5649 11.4815C97.5616 11.7036 97.6428 11.8842 97.8085 12.0234C97.9775 12.1626 98.2559 12.277 98.6437 12.3665L99.9463 12.6449C100.669 12.8007 101.206 13.0476 101.557 13.3857C101.912 13.7237 102.091 14.1662 102.094 14.7131C102.091 15.1937 101.95 15.6179 101.671 15.9858C101.396 16.3504 101.014 16.6354 100.523 16.8409C100.032 17.0464 99.469 17.1491 98.8327 17.1491C97.898 17.1491 97.1456 16.9536 96.5756 16.5625C96.0055 16.1681 95.6657 15.6196 95.5564 14.9169L97.3113 14.7479C97.3909 15.0926 97.5599 15.3527 97.8184 15.5284C98.077 15.7041 98.4134 15.7919 98.8277 15.7919C99.2552 15.7919 99.5983 15.7041 99.8568 15.5284C100.119 15.3527 100.25 15.1357 100.25 14.8771C100.25 14.6584 100.165 14.4777 99.996 14.3352C99.8303 14.1927 99.5718 14.0833 99.2204 14.0071L97.9179 13.7337C97.1854 13.5812 96.6435 13.3243 96.2922 12.9631C95.9408 12.5985 95.7668 12.1378 95.7702 11.581C95.7668 11.1103 95.8944 10.7027 96.153 10.358C96.4148 10.0099 96.7777 9.74148 97.2417 9.55256C97.7091 9.36032 98.2477 9.2642 98.8575 9.2642C99.7524 9.2642 100.457 9.45478 100.97 9.83594C101.487 10.2171 101.807 10.7325 101.93 11.3821Z" fill="#FF5956"/>
<path fill-rule="evenodd" clip-rule="evenodd" d="M112.559 17.1296C112.859 17.4012 113.346 17.4012 113.646 17.1296L118.775 12.4919C119.075 12.2202 119.075 11.7798 118.775 11.5081L113.646 6.87041C113.346 6.59875 112.859 6.59875 112.559 6.87041C112.258 7.14208 112.258 7.58255 112.559 7.85421L117.143 12L112.559 16.1458C112.258 16.4174 112.258 16.8579 112.559 17.1296Z" fill="#FF5956" stroke="#FF5956" stroke-width="0.5" stroke-linecap="round" stroke-linejoin="round"/>
</svg>
